HIERARCHY
ROOT Hips
{
  OFFSET 13.6774 106.653 -34.4427
  CHANNELS 6 Xposition Yposition Zposition Zrotation Xrotation Yrotation
  JOINT ToSpine
  {
    OFFSET -2.69724 7.43032 -0.144315
    CHANNELS 3 Zrotation Xrotation Yrotation
    JOINT Spine
    {
      OFFSET -0.0310711 10.7595 1.96963
      CHANNELS 3 Zrotation Xrotation Yrotation
      JOINT Spine1
      {
        OFFSET 19.9056 3.91189 0.764692
        CHANNELS 3 Zrotation Xrotation Yrotation
        JOINT Neck
        {
          OFFSET 25.9749 7.03908 -0.130764
          CHANNELS 3 Zrotation Xrotation Yrotation
          JOINT Head
          {
            OFFSET 9.52751 0.295786 -0.907742
            CHANNELS 3 Zrotation Xrotation Yrotation
            End Site
            {
              OFFSET 16.4037 0.713936 2.7358
            }
          }
        }
        JOINT LeftShoulder
        {
          OFFSET 17.7449 4.33886 11.7777
          CHANNELS 3 Zrotation Xrotation Yrotation
          JOINT LeftArm
          {
            OFFSET 0.911315 1.27913 9.80584
            CHANNELS 3 Zrotation Xrotation Yrotation
            JOINT LeftForeArm
            {
              OFFSET 28.6126 1.18197 -3.53199
              CHANNELS 3 Zrotation Xrotation Yrotation
              JOINT LeftHand
              {
                OFFSET 27.5088 0.0218783 0.327423
                CHANNELS 3 Zrotation Xrotation Yrotation
                End Site
                {
                  OFFSET 18.6038 -0.000155887 0.382096
                }
              }
            }
          }
        }
        JOINT RightShoulder
        {
          OFFSET 17.1009 2.89543 -12.2328
          CHANNELS 3 Zrotation Xrotation Yrotation
          JOINT RightArm
          {
            OFFSET 1.4228 0.178766 -10.211
            CHANNELS 3 Zrotation Xrotation Yrotation
            JOINT RightForeArm
            {
              OFFSET 28.733 1.87905 2.64907
              CHANNELS 3 Zrotation Xrotation Yrotation
              JOINT RightHand
              {
                OFFSET 27.4588 0.290562 -0.101845
                CHANNELS 3 Zrotation Xrotation Yrotation
                End Site
                {
                  OFFSET 17.8396 -0.255518 -0.000602873
                }
              }
            }
          }
        }
      }
    }
  }
  JOINT LeftUpLeg
  {
    OFFSET -5.61296 -2.22332 -10.2353
    CHANNELS 3 Zrotation Xrotation Yrotation
    JOINT LeftLeg
    {
      OFFSET 2.56703 -44.7417 -7.93097
      CHANNELS 3 Zrotation Xrotation Yrotation
      JOINT LeftFoot
      {
        OFFSET 3.16933 -46.5642 -3.96578
        CHANNELS 3 Zrotation Xrotation Yrotation
        JOINT LeftToeBase
        {
          OFFSET 0.346054 -6.02161 12.8035
          CHANNELS 3 Zrotation Xrotation Yrotation
          End Site
          {
            OFFSET 0.134235 -1.35082 5.13018
          }
        }
      }
    }
  }
  JOINT RightUpLeg
  {
    OFFSET -5.7928 -1.72406 10.6446
    CHANNELS 3 Zrotation Xrotation Yrotation
    JOINT RightLeg
    {
      OFFSET -2.57161 -44.7178 -7.85259
      CHANNELS 3 Zrotation Xrotation Yrotation
      JOINT RightFoot
      {
        OFFSET -3.10148 -46.5936 -4.03391
        CHANNELS 3 Zrotation Xrotation Yrotation
        JOINT RightToeBase
        {
          OFFSET -0.0828122 -6.13587 12.8035
          CHANNELS 3 Zrotation Xrotation Yrotation
          End Site
          {
            OFFSET -0.131328 -1.35082 5.13018
          }
        }
      }
    }
  }
}
MOTION
Frames: 14
Frame Time: 0.03333333333333333
0.0000 93.1000 0.0000 54.7619 -17.5947 -5.1677 -71.2736 -0.0502 88.1076 100.7765 69.8394 -18.2038 -0.2260 21.3458 -2.1070 -155.1492 14.4290 171.6162 -150.3622 54.9108 -163.1445 -0.4491 -13.9514 -36.4957 -98.7087 36.9521 -60.8900 8.9699 1.6993 -76.7236 -0.1984 -0.1075 -0.1909 -2.0129 4.9100 43.6941 -59.9110 -44.7153 73.0120 11.7358 -8.0528 59.5362 0.3583 0.2593 0.6147 -32.0906 -6.2263 100.1486 -10.7158 64.5455 -17.8848 3.0612 -18.6232 -2.0972 4.8985 -15.1874 18.3611 -28.5123 3.2210 91.4522 154.7410 81.2008 -160.8560 -8.4410 6.0137 0.8057 2.1279 -9.1132 -13.5452 
0.0000 93.1000 0.0000 54.0942 -14.7263 -3.8428 -71.2717 -0.1176 88.0912 103.8479 67.6465 -19.5210 -0.8971 18.9563 -1.5760 -156.3573 14.1282 171.4539 -151.3600 54.2668 -161.8742 -0.2101 -13.5275 -34.2929 -100.7837 35.9718 -65.8822 12.7963 -0.0601 -86.5763 -0.0129 -0.3720 0.1450 -2.1501 4.9372 44.6802 -56.2048 -44.8759 70.1671 13.9949 -9.3990 57.6976 0.5010 -0.0859 0.4513 -37.1344 -7.0780 98.7486 -8.6411 61.6605 -19.7388 2.7001 -20.0319 -1.9462 5.7003 -14.9093 19.3763 -16.7912 7.1979 91.6868 161.6329 76.4683 -166.5037 -9.1342 6.1608 0.8847 2.3161 -15.1752 -18.8726 
0.0000 93.1000 0.0000 55.3018 -11.9808 -1.0562 -71.2518 -0.1364 88.0598 105.1011 65.1101 -20.4603 -1.8653 16.0085 0.0842 -156.5602 13.3968 170.8278 -150.4793 53.0112 -164.3516 -0.0867 -13.0629 -31.6365 -104.1891 36.3679 -66.3629 15.9039 -1.9417 -95.1524 -0.4337 -0.4283 0.4634 -2.1601 5.4620 44.9288 -55.1630 -45.9729 65.0822 17.1218 -11.1135 59.5261 0.6102 -0.1551 0.2390 -45.4058 -7.1544 95.1080 -6.9906 56.2971 -19.0246 2.1252 -16.7916 -1.6235 6.3478 -15.2807 9.2009 -8.1808 8.1751 89.0953 156.1703 80.4552 -159.6527 -9.9880 4.2805 1.0037 1.7081 -15.9085 -17.5270 
0.0000 93.1000 0.0000 55.2527 -9.9106 2.0359 -71.2313 -0.0530 88.0734 107.2903 63.6180 -20.9385 -2.0440 14.0153 1.9513 -155.7710 12.2698 171.6680 -147.3324 51.8684 -168.8137 -0.1522 -13.2211 -30.5118 -105.0257 37.5883 -63.9418 17.2088 -4.9016 -102.4070 -0.0047 -0.1546 0.5549 -2.0048 5.9435 45.2764 -55.7109 -46.4325 59.2002 15.9403 -10.0990 60.5903 0.2272 0.1158 -0.0999 -54.7150 -6.0640 91.9020 -4.7693 46.8542 -18.5587 -0.7098 -6.3573 -0.7170 7.8886 -18.6899 -3.5129 -3.9147 10.4620 86.7525 66.2506 85.9838 -66.9856 -8.6847 5.9174 0.6541 2.2104 -22.5473 -20.5511 
0.0000 93.1000 0.0000 57.0950 -8.8246 2.7787 -71.2124 0.0043 88.0873 108.1762 62.7899 -19.8486 -2.3372 12.9072 3.9423 -155.6040 11.9018 173.6332 -148.0616 51.8047 -166.2713 -0.2199 -12.6738 -29.3268 -101.6252 39.4442 -63.2428 18.0749 -7.2143 -108.6781 -0.0425 0.0317 0.1700 -1.6779 5.6682 44.1241 -59.2789 -47.0663 51.7474 14.6506 -7.8723 62.3231 0.1020 0.3991 -0.0145 -62.8803 -4.9917 90.8618 -4.0402 38.0846 -20.1707 -7.0926 8.9880 1.3522 7.7513 -17.9562 -14.9794 -4.3073 9.9846 85.7637 8.6373 71.5319 -9.1974 -3.6130 4.2882 -0.1735 2.0484 -17.9321 -15.9960 
0.0000 93.1000 0.0000 54.1594 -7.7693 2.2343 -71.2248 -0.0525 88.0947 100.0141 63.5843 -13.2671 -1.8488 12.8366 4.6515 -157.6492 12.0684 171.7677 -147.6520 50.9883 -173.4103 -0.0882 -12.6975 -28.2435 -96.8006 41.6465 -64.2939 19.6647 -8.7448 -109.7608 -0.0812 -0.2640 0.0338 -1.9014 5.5206 44.3524 -63.8822 -45.9924 48.0028 15.4862 -8.2387 64.4533 0.4789 -0.0047 0.1778 -66.1729 -6.1941 91.4552 -3.1490 33.0481 -24.8292 -12.1114 16.5698 3.3265 1.4423 -0.3517 -9.0238 -4.6819 9.0281 85.9323 4.5379 52.2983 1.4791 -2.4458 4.5627 -0.5625 1.9946 -16.0762 -22.9471 
0.0000 93.1000 0.0000 53.2274 -6.9228 -0.1842 -71.2526 0.0143 88.0965 93.1504 63.9438 -6.6551 -0.0348 12.5556 4.8033 -159.7205 12.8684 172.2535 -147.5612 51.0937 -175.3570 -0.3536 -13.0393 -27.3300 -89.7560 44.6869 -66.0500 16.7901 -7.1413 -108.4648 -0.1404 0.0919 -0.3145 -1.8326 5.7369 42.1666 -66.8671 -46.0016 48.8766 17.4489 -8.9488 65.9861 0.5443 0.2507 0.0152 -66.1887 -7.3400 90.7929 -4.2343 35.7753 -19.1592 -10.5021 12.9544 2.4497 -2.0439 4.2147 -2.7875 -7.8127 8.3074 84.7078 2.3813 38.3949 9.5570 -2.4713 10.2896 -0.6544 1.1238 -26.0722 -28.9828 
0.0000 93.1000 0.0000 54.3172 -5.4994 -1.7529 -71.2782 0.0520 88.0997 94.9879 64.9832 -9.0436 -0.5750 13.4188 3.6768 -158.9441 13.9822 171.7895 -146.6412 51.7476 -176.5852 -0.6513 -14.5077 -28.5254 -81.8228 45.6498 -68.0641 15.7427 -4.2448 -101.8050 0.0473 0.2419 -0.4100 -1.9137 5.3850 43.6436 -70.7702 -43.7631 50.0665 15.9033 -8.2399 66.5627 0.2952 0.4291 0.1232 -64.7732 -9.1561 91.4637 -4.3011 43.5104 -12.1710 -7.2613 6.9396 1.0991 -1.6184 1.4223 -1.6450 -9.4326 6.0029 81.5843 2.2812 38.2090 5.9621 -1.8032 10.2850 -0.8162 1.6952 -25.6392 -28.4790 
0.0000 93.1000 0.0000 56.8634 -4.8596 -2.0241 -71.3051 -0.0180 88.1088 101.1647 65.8151 -15.3103 -1.2486 14.6295 4.2391 -159.8520 15.5113 175.7924 -146.6032 53.5936 -174.1573 -0.4052 -15.0847 -30.4112 -77.8879 48.0354 -68.7147 16.0244 -1.5533 -92.7898 -0.1262 -0.2482 -0.4646 -1.8533 4.9121 44.1353 -72.7723 -41.6354 54.0669 16.9664 -8.0494 66.6288 0.2749 -0.0363 0.0529 -62.0125 -9.0029 92.6436 -5.8399 55.7461 -7.8296 -6.6538 4.9402 1.2146 -2.0435 -0.8258 5.3756 -12.4615 4.9460 81.3047 0.8174 45.5040 -1.8819 -4.0782 -0.0686 -0.4186 2.0520 -6.5171 -18.8072 
0.0000 93.1000 0.0000 58.9627 -4.7471 -0.8052 -71.3220 0.0106 88.0976 110.2153 66.2066 -22.3204 -2.9365 15.7545 4.8509 -158.1841 16.4448 175.5631 -144.6146 55.0208 -175.7673 -0.6317 -16.0356 -31.5430 -73.8824 49.6519 -69.1162 17.6413 1.8779 -83.6880 -0.2402 -0.2694 -0.4646 -1.9645 4.8226 44.9693 -73.0977 -38.1048 58.8182 16.7505 -7.2637 68.7088 0.1781 0.0144 -0.0592 -56.3304 -5.0741 93.9194 -10.1149 69.9290 1.7547 -6.1866 4.0727 1.0345 -0.0914 -4.3085 5.9084 -16.8268 6.1975 81.9069 0.5422 52.2490 -9.5803 -15.4732 -7.5120 1.4626 1.2776 -13.1449 -2.1059 
0.0000 93.1000 0.0000 60.9128 -5.0077 1.1584 -71.3386 0.0714 88.0196 122.0998 65.2074 -31.0700 -3.4904 17.0528 3.2482 -160.8804 17.0651 176.3570 -144.5780 55.8490 -175.7036 -1.1196 -15.9114 -33.0328 -71.6933 50.7265 -69.8693 12.9722 4.2694 -72.3356 -0.1548 0.1524 -0.2193 -2.0801 5.6137 46.1574 -73.4260 -35.0778 67.7779 17.8550 -7.2180 70.3816 -0.4694 0.2803 -0.2446 -46.7170 0.1949 93.8077 -36.3445 82.9444 30.1332 -5.2929 1.9870 0.3264 0.2908 -4.8927 8.0699 -22.3449 9.1829 84.5639 2.8830 57.1056 -2.4547 -13.2222 -13.1855 1.2469 2.1421 -16.4677 -29.8390 
0.0000 93.1000 0.0000 61.1294 -7.7207 0.3613 -71.4304 0.0295 88.0367 128.8597 66.0670 -36.9741 -4.9062 19.5857 1.9841 -162.7558 19.0590 -180.1750 -151.9507 58.8743 -170.6412 -0.9818 -15.8840 -33.4140 -68.7213 52.8028 -70.9380 9.8055 4.2181 -65.0240 -0.1725 -0.0235 0.1318 -2.2971 6.0219 43.9740 -75.3588 -35.7248 75.8154 18.4831 -6.8238 72.4369 0.4550 0.0150 -0.1758 -33.8908 3.6859 94.8666 -131.7404 83.9395 127.6621 -1.6634 1.1035 -0.1830 2.6168 -9.6010 8.7800 -27.7555 9.3339 85.3610 3.6380 59.1446 -1.6879 -14.8513 -16.0684 1.4754 0.6114 -20.8239 -33.0848 
0.0000 93.1000 0.0000 59.2724 -8.1434 -2.6704 -71.3555 0.0055 88.0277 128.2934 68.1448 -38.4205 -6.0250 21.9238 2.5949 -163.9858 19.9942 174.5349 -146.9025 58.5693 -179.3651 -0.5900 -14.5174 -32.6325 -67.5440 55.2663 -64.0194 10.1524 3.8069 -66.3231 0.2981 -0.1686 0.3113 -2.3692 5.9201 42.9276 -75.7236 -36.7181 83.0516 20.7862 -4.4234 79.6649 0.4923 -0.2208 0.5638 -22.4003 3.9770 95.6636 -136.1290 82.7459 131.3365 -1.0996 -0.4022 -0.4109 4.6326 -13.9641 11.8835 -33.6553 7.0894 87.9405 3.9600 56.2546 3.0254 -12.6212 -18.1478 1.4913 0.2430 -25.2826 -36.3172 
0.0000 93.1000 0.0000 59.0723 -8.2038 -4.2033 -71.2900 -0.0929 88.0985 124.1215 70.2023 -36.4582 -5.2550 23.6872 3.5098 -163.7758 20.9777 177.6894 -151.3474 60.1818 -177.2967 -0.0732 -13.7388 -32.6541 -65.0129 58.1098 -62.2168 9.5866 3.4393 -69.6164 -0.5682 -0.6090 0.4586 -1.7833 5.7516 38.2319 -76.0091 -39.9044 86.8118 22.9593 -1.1839 87.4305 0.9746 -0.5318 0.3035 -15.1639 4.9201 95.9716 -48.4139 84.0235 42.0576 -1.0831 -2.7508 -0.2740 6.0418 -16.2746 13.8597 -42.7531 5.2147 90.8929 1.4971 50.7878 -4.0953 -0.0021 -23.4253 0.1368 2.3567 -13.2508 -12.0834 
